<svg xmlns="http://www.w3.org/2000/svg" width="449.067" height="73.797" viewBox="0 0 449.067 73.797">
  <g id="Group_5" data-name="Group 5" transform="translate(166.73 -35.842)">
    <path id="Path_1" data-name="Path 1" d="M-137.831,61.814c0-9.374,6.922-16.3,16.373-16.3s16.373,6.922,16.373,16.3-7,16.226-16.373,16.226S-137.831,71.191-137.831,61.814Zm5.508,0c0,7.592,5.358,11.462,10.865,11.462,5.581,0,10.865-3.943,10.865-11.462,0-7.589-5.211-11.533-10.865-11.533S-132.323,54.3-132.323,61.814Z" transform="translate(59.574 19.946)" fill="#fff"/>
    <path id="Path_2" data-name="Path 2" d="M-124.717,46.554h5.361v3.573A10.885,10.885,0,0,1-110.5,45.81a10.481,10.481,0,0,1,8.857,4.24c1.561,2.308,1.785,4.837,1.785,8.26V77.438h-5.358V58.46c0-1.861-.147-4.02-1.414-5.655a6.056,6.056,0,0,0-5.061-2.235,6.758,6.758,0,0,0-5.431,2.382c-2.085,2.455-2.232,6.1-2.232,8.336V77.438h-5.361Z" transform="translate(86.608 20.548)" fill="#fff"/>
    <g id="Group_1" data-name="Group 1" transform="translate(35.792 65.464)">
      <path id="Path_3" data-name="Path 3" d="M-74.978,46.262h5.358V77.146h-5.358V72.829A13.022,13.022,0,0,1-85.546,78.04c-7.813,0-15.032-5.508-15.032-16.373,0-10.642,7.145-16.149,15.032-16.149a12.783,12.783,0,0,1,10.568,5.134ZM-95.07,61.667c0,6.622,3.72,11.609,10.121,11.609,6.548,0,10.268-5.434,10.268-11.536,0-7.963-5.508-11.459-10.268-11.459C-90.233,50.282-95.07,54.151-95.07,61.667Z" transform="translate(100.578 -45.518)" fill="#fff"/>
    </g>
    <g id="Group_2" data-name="Group 2" transform="translate(-166.73 46.501)">
      <path id="Path_4" data-name="Path 4" d="M-107.1,42.493a4.726,4.726,0,0,0-.285-.652h0a4.725,4.725,0,0,0-4.237-2.507,4.724,4.724,0,0,0-4.234,2.507h0a4.721,4.721,0,0,0-.285.652l-7.892,14.836-7.9-14.836a4.727,4.727,0,0,0-.285-.652h0a4.7,4.7,0,0,0-3.6-2.471,4.732,4.732,0,0,0-4.865,2.455l-1.221,2.269.04.073L-166.73,90.907h7.954a4.781,4.781,0,0,0,4.216-2.535l18.109-34.037,7,13.164L-141.9,90.907h7.951a4.777,4.777,0,0,0,4.216-2.535l18.109-34.037,18.109,34.037A4.782,4.782,0,0,0-89.3,90.907h7.951Z" transform="translate(166.73 -39.324)" fill="#fff"/>
      <path id="Path_5" data-name="Path 5" d="M-152.04,60.107l4.761,8.949h10.82l-10.179-19.133Z" transform="translate(197.012 -17.474)" fill="#fff"/>
    </g>
    <g id="Group_3" data-name="Group 3" transform="translate(-5.89 46.361)">
      <path id="Path_6" data-name="Path 6" d="M-109.421,62.98a23.754,23.754,0,0,0,8.223,4.3c1.222.419,2.474.839,3.649,1.316l4.4-8.241c-.909-.343-1.846-.67-2.8-1-3.11-1.111-4.739-1.7-5.924-2.813a4.165,4.165,0,0,1-1.555-3.334c0-2.517,1.629-5.777,6.815-5.777a9.766,9.766,0,0,1,3.264.533,8.621,8.621,0,0,0,9.769-2.8l.077-.1a19,19,0,0,0-14-5.777c-10.96,0-15.849,7.259-15.849,14.517A11.5,11.5,0,0,0-109.421,62.98Z" transform="translate(115.939 -39.278)" fill="#fff"/>
      <path id="Path_7" data-name="Path 7" d="M-84.2,48.71a14.823,14.823,0,0,0-2.6-1.864l-4.7,8.8a5.676,5.676,0,0,1,1.592,4.1c0,4.148-3.257,6.815-7.626,6.815a11.6,11.6,0,0,1-6-1.724,8.638,8.638,0,0,0-10.528.995l-.141.135A20.337,20.337,0,0,0-97.156,75.3c10.219,0,17.181-6.594,17.181-16.223A13.439,13.439,0,0,0-84.2,48.71Z" transform="translate(114.193 -23.677)" fill="#fff"/>
    </g>
    <g id="Group_4" data-name="Group 4" transform="translate(139.621 40.489)">
      <path id="Path_8" data-name="Path 8" d="M-55.74,42.038A5.311,5.311,0,0,0-57.016,40.4a3.919,3.919,0,0,0-2.452-.753,3.349,3.349,0,0,0-3.665,3.371,2.284,2.284,0,0,0,.82,1.9,7.041,7.041,0,0,0,2.287,1.372l2.094.918a10.548,10.548,0,0,1,3.368,2.06,5.242,5.242,0,0,1,1.571,3.955,6.543,6.543,0,0,1-6.9,6.7,6.5,6.5,0,0,1-4.742-1.763,7.925,7.925,0,0,1-2.027-3.86l2.354-.652A5.14,5.14,0,0,0-63,56.427a4.183,4.183,0,0,0,3.141,1.209,4.129,4.129,0,0,0,4.381-4.317,3.25,3.25,0,0,0-1.081-2.55,9.482,9.482,0,0,0-2.615-1.5l-1.962-.918a9.589,9.589,0,0,1-2.908-1.8,4.526,4.526,0,0,1-1.506-3.564c0-3.368,2.584-5.627,6.114-5.627a5.9,5.9,0,0,1,3.5.986,6.586,6.586,0,0,1,2.125,2.419Z" transform="translate(66.663 -37.36)" fill="#fff"/>
      <path id="Path_9" data-name="Path 9" d="M-61.215,47.224a6.97,6.97,0,0,1,7.194-7.161,6.97,6.97,0,0,1,7.194,7.161,6.959,6.959,0,0,1-7.194,7.127A6.959,6.959,0,0,1-61.215,47.224Zm2.419,0a4.705,4.705,0,0,0,4.776,5.036,4.706,4.706,0,0,0,4.776-5.036,4.7,4.7,0,0,0-4.776-5.067A4.715,4.715,0,0,0-58.8,47.224Z" transform="translate(77.894 -31.788)" fill="#fff"/>
      <path id="Path_10" data-name="Path 10" d="M-52.986,48.084a4.608,4.608,0,0,0,.655,2.908,2.883,2.883,0,0,0,2.388,1.047,2.881,2.881,0,0,0,2.385-1.047,4.608,4.608,0,0,0,.655-2.908V40.17h2.354v8.174a5.4,5.4,0,0,1-1.243,4.09,5.668,5.668,0,0,1-4.151,1.7,5.674,5.674,0,0,1-4.154-1.7,5.407,5.407,0,0,1-1.243-4.09V40.17h2.354Z" transform="translate(90.005 -31.567)" fill="#fff"/>
      <path id="Path_11" data-name="Path 11" d="M-50.362,40.391h2.354v1.47a3.776,3.776,0,0,1,3.074-1.8,4.98,4.98,0,0,1,2.094.554l-1.111,2.125a2.431,2.431,0,0,0-1.375-.456,2.288,2.288,0,0,0-1.9.851c-.392.523-.784,1.439-.784,3.665v7.158h-2.354Z" transform="translate(100.267 -31.788)" fill="#fff"/>
      <path id="Path_12" data-name="Path 12" d="M-36.257,44.184a5.464,5.464,0,0,0-4.249-2.027,4.72,4.72,0,0,0-4.806,5.067A4.721,4.721,0,0,0-40.54,52.26a5.782,5.782,0,0,0,4.381-2.128v2.813a7.229,7.229,0,0,1-4.317,1.405,6.948,6.948,0,0,1-7.259-7.093,7.012,7.012,0,0,1,7.259-7.194,7.2,7.2,0,0,1,4.219,1.307Z" transform="translate(105.684 -31.788)" fill="#fff"/>
      <path id="Path_13" data-name="Path 13" d="M-41.268,37.948A1.676,1.676,0,0,1-39.6,39.616a1.678,1.678,0,0,1-1.668,1.668,1.676,1.676,0,0,1-1.669-1.668A1.674,1.674,0,0,1-41.268,37.948Zm1.176,6.8V58.319h-2.354V44.751Z" transform="translate(115.573 -36.148)" fill="#fff"/>
      <path id="Path_14" data-name="Path 14" d="M-40.555,40.391H-38.2v1.571a4.784,4.784,0,0,1,3.891-1.9,4.6,4.6,0,0,1,3.891,1.864,6.054,6.054,0,0,1,.784,3.628v8.4h-2.354V45.623a3.979,3.979,0,0,0-.621-2.486,2.659,2.659,0,0,0-2.223-.98A2.963,2.963,0,0,0-37.221,43.2a5.709,5.709,0,0,0-.98,3.662v7.093h-2.354Z" transform="translate(120.484 -31.788)" fill="#fff"/>
      <path id="Path_15" data-name="Path 15" d="M-24.564,40.391h2.354V53.634a8.528,8.528,0,0,1-1.307,5.327,6.6,6.6,0,0,1-5.428,2.523,6.719,6.719,0,0,1-4.84-1.834,6.112,6.112,0,0,1-1.766-4.384h2.321a4.282,4.282,0,0,0,1.047,2.813,4.2,4.2,0,0,0,3.27,1.31,3.8,3.8,0,0,0,3.6-1.9,6.287,6.287,0,0,0,.753-3.466V52.064a5.723,5.723,0,0,1-4.644,2.287,6.5,6.5,0,0,1-4.644-1.828,7.367,7.367,0,0,1-1.959-5.364,7.124,7.124,0,0,1,1.959-5.266,6.7,6.7,0,0,1,4.644-1.831,5.648,5.648,0,0,1,4.644,2.256Zm-7.458,3.04a5.181,5.181,0,0,0-1.372,3.729,5.231,5.231,0,0,0,1.537,3.989,4.113,4.113,0,0,0,2.911,1.111,4.014,4.014,0,0,0,2.976-1.145,5.5,5.5,0,0,0,1.537-3.922,5.374,5.374,0,0,0-1.439-3.827,4.349,4.349,0,0,0-3.074-1.209A4.211,4.211,0,0,0-32.022,43.431Z" transform="translate(130.261 -31.788)" fill="#fff"/>
      <path id="Path_16" data-name="Path 16" d="M-48.809,55.345a10.732,10.732,0,0,0-2.847-2.027,9.264,9.264,0,0,0-3.759-.848,8.8,8.8,0,0,0-8.762,9.089,8.731,8.731,0,0,0,8.8,8.9,9.1,9.1,0,0,0,4.053-1.013,10.006,10.006,0,0,0,2.52-1.834v3.006a11.34,11.34,0,0,1-6.573,2.128A11.025,11.025,0,0,1-66.663,61.529,11.088,11.088,0,0,1-55.25,50.18a10.268,10.268,0,0,1,6.441,2.158Z" transform="translate(66.663 -10.932)" fill="#fff"/>
      <path id="Path_17" data-name="Path 17" d="M-59.847,60.044a6.966,6.966,0,0,1,7.191-7.161,6.967,6.967,0,0,1,7.194,7.161,6.961,6.961,0,0,1-7.194,7.127A6.958,6.958,0,0,1-59.847,60.044Zm2.419,0a4.7,4.7,0,0,0,4.773,5.033,4.7,4.7,0,0,0,4.776-5.033,4.7,4.7,0,0,0-4.776-5.07A4.717,4.717,0,0,0-57.428,60.044Z" transform="translate(80.714 -5.36)" fill="#fff"/>
      <path id="Path_18" data-name="Path 18" d="M-53.972,53.208h2.354v1.571a4.784,4.784,0,0,1,3.891-1.9,4.6,4.6,0,0,1,3.891,1.861,6.059,6.059,0,0,1,.784,3.631v8.4h-2.354V58.44a3.975,3.975,0,0,0-.621-2.483,2.653,2.653,0,0,0-2.223-.983,2.973,2.973,0,0,0-2.388,1.047,5.709,5.709,0,0,0-.98,3.662v7.1h-2.354Z" transform="translate(92.825 -5.36)" fill="#fff"/>
      <path id="Path_19" data-name="Path 19" d="M-42.654,56.349a2.08,2.08,0,0,0-1.9-1.375,1.5,1.5,0,0,0-1.635,1.537c0,.983.655,1.274,2.192,1.929a8.238,8.238,0,0,1,3.4,2.094,3.214,3.214,0,0,1,.716,2.192c0,2.841-2.057,4.445-4.675,4.445a4.856,4.856,0,0,1-4.742-3.466l2.03-.848a3.07,3.07,0,0,0,2.746,2.22A2.106,2.106,0,0,0-42.3,62.918c0-1.274-.915-1.7-2.189-2.253a8.9,8.9,0,0,1-3.3-2,2.943,2.943,0,0,1-.621-2,3.647,3.647,0,0,1,3.955-3.79,3.911,3.911,0,0,1,3.729,2.452Z" transform="translate(102.469 -5.36)" fill="#fff"/>
      <path id="Path_20" data-name="Path 20" d="M-42.84,60.9a4.6,4.6,0,0,0,.655,2.908A2.884,2.884,0,0,0-39.8,64.858a2.884,2.884,0,0,0,2.388-1.047,4.621,4.621,0,0,0,.652-2.908V52.989H-34.4v8.174a5.384,5.384,0,0,1-1.243,4.087,5.663,5.663,0,0,1-4.151,1.7,5.663,5.663,0,0,1-4.151-1.7,5.384,5.384,0,0,1-1.243-4.087V52.989h2.351Z" transform="translate(110.927 -5.141)" fill="#fff"/>
      <path id="Path_21" data-name="Path 21" d="M-37.857,49.636V73.473h-2.357V49.636Z" transform="translate(121.187 -12.053)" fill="#fff"/>
      <path id="Path_22" data-name="Path 22" d="M-34.647,58.45V69.863H-37V58.45H-38.44V56.291H-37v-4.9h2.354v4.9h2.354V58.45Z" transform="translate(124.844 -8.444)" fill="#fff"/>
      <path id="Path_23" data-name="Path 23" d="M-24.735,53.208h2.354V66.779h-2.354v-1.9a5.723,5.723,0,0,1-4.644,2.287c-3.432,0-6.6-2.419-6.6-7.194,0-4.675,3.138-7.093,6.6-7.093a5.614,5.614,0,0,1,4.644,2.253Zm-8.829,6.769c0,2.908,1.635,5.1,4.448,5.1,2.875,0,4.513-2.385,4.513-5.067,0-3.5-2.419-5.036-4.513-5.036C-31.44,54.974-33.564,56.673-33.564,59.976Z" transform="translate(129.909 -5.36)" fill="#fff"/>
      <path id="Path_24" data-name="Path 24" d="M-30.087,53.208h2.357v1.571a4.784,4.784,0,0,1,3.891-1.9,4.6,4.6,0,0,1,3.891,1.861,6.059,6.059,0,0,1,.784,3.631v8.4h-2.354V58.44a3.975,3.975,0,0,0-.621-2.483,2.653,2.653,0,0,0-2.223-.983,2.969,2.969,0,0,0-2.388,1.047,5.709,5.709,0,0,0-.98,3.662v7.1h-2.357Z" transform="translate(142.063 -5.36)" fill="#fff"/>
      <path id="Path_25" data-name="Path 25" d="M-21.724,58.45V69.863h-2.354V58.45h-1.436V56.291h1.436v-4.9h2.354v4.9h2.354V58.45Z" transform="translate(151.49 -8.444)" fill="#fff"/>
      <path id="Path_26" data-name="Path 26" d="M-16.482,56.349a2.08,2.08,0,0,0-1.9-1.375,1.5,1.5,0,0,0-1.635,1.537c0,.983.655,1.274,2.192,1.929a8.2,8.2,0,0,1,3.4,2.094,3.2,3.2,0,0,1,.719,2.192c0,2.841-2.06,4.445-4.675,4.445a4.856,4.856,0,0,1-4.742-3.466l2.03-.848a3.07,3.07,0,0,0,2.746,2.22,2.106,2.106,0,0,0,2.223-2.158c0-1.274-.915-1.7-2.192-2.253a8.881,8.881,0,0,1-3.3-2,2.943,2.943,0,0,1-.621-2,3.647,3.647,0,0,1,3.955-3.79,3.913,3.913,0,0,1,3.729,2.452Z" transform="translate(156.421 -5.36)" fill="#fff"/>
    </g>
    <line id="Line_1" data-name="Line 1" y2="73.797" transform="translate(103.172 35.842)" fill="#fff" stroke="#fff" stroke-miterlimit="10" stroke-width="2"/>
  </g>
</svg>
