<svg xmlns="http://www.w3.org/2000/svg" viewBox="0 0 415.61 415.43"><defs><style>.cls-1{fill:#fff;}</style></defs><g id="Layer_2" data-name="Layer 2"><g id="Layer_1-2" data-name="Layer 1"><path class="cls-1" d="M345.51,89.45l-43.93,36.16q-93.6,77-187.27,153.94a7.46,7.46,0,0,1-6.09,1C76.45,269.6,44.75,258.44,13,247.33a27.64,27.64,0,0,1-2.8-1C4.84,243.75.3,240.12,0,233.81c-.27-6,3.91-9.71,8.73-12.44q33.47-18.94,67-37.75,159.41-89.53,318.84-179a43.43,43.43,0,0,1,9.07-4c7.12-2.06,12.3,1.49,11.93,8.84-.44,8.78-1.85,17.53-3.15,26.24q-7.76,52.11-15.71,104.18Q386.88,205,377,270.15q-5.7,37.77-11.3,75.56c-2.29,15.46-12.7,21.07-27.41,15.74-31.74-11.52-63.67-22.51-95.53-33.71-4.39-1.55-8.89-2.86-13.16-4.68-3-1.28-4.36-.39-5.94,2.2Q203.16,359,182.34,392.51c-4,6.51-8.25,12.92-12.71,19.14-1.27,1.77-4.24,4.18-5.48,3.72a17.66,17.66,0,0,1-7.34-5.77c-1.14-1.47-1-4.15-1-6.29,0-30.83,0-61.67-.06-92.51A32.79,32.79,0,0,1,165,287.35Q254.79,190,344.3,92.29c.66-.72,1.3-1.46,1.95-2.2Z"/></g></g></svg>